<svg width="28" height="28" viewBox="0 0 28 28" fill="none" xmlns="http://www.w3.org/2000/svg">
<g clip-path="url(#clip0)">
<path d="M0 13.5435V13.5039C0.351464 8.90983 1.99163 5.46429 4.8424 3.28607C7.65411 1.06825 10.7001 -0.00105583 14.0195 -0.00105583C17.4951 -0.0406598 20.7364 1.14746 23.6262 3.5237C26.5551 5.86033 28 9.34548 28 13.8603V14.1376C28 18.692 26.5551 22.098 23.6262 24.4346C20.6973 26.8108 17.4561 27.9989 13.9805 27.9989H13.8243C10.4268 27.9593 7.30265 26.7712 4.41283 24.395C1.52301 22.0583 0.0390516 18.4544 0 13.5435ZM13.1604 7.32568V1.06825H12.2232C12.0279 1.30587 11.8717 1.5831 11.7155 1.82073C11.5593 2.05835 11.4031 2.29597 11.2469 2.5732C11.0907 2.81083 10.8954 3.12766 10.7782 3.36528C10.622 3.6029 10.5049 3.84053 10.3877 4.11776C10.1534 4.5138 9.95816 4.90984 9.80195 5.26627C9.60669 5.62271 9.45049 5.97914 9.33333 6.29597C9.56764 6.45439 9.841 6.65241 10.1534 6.77122C10.5049 6.89003 10.8563 7.00885 11.2078 7.08805C11.5983 7.16726 11.9498 7.20686 12.2622 7.24647C12.6137 7.28607 12.9261 7.32568 13.1604 7.32568ZM14.8006 1.06825V7.28607C14.9958 7.28607 15.2301 7.32568 15.4644 7.28607C15.6987 7.28607 15.9721 7.24647 16.2064 7.20686C16.636 7.12766 17.1437 7.00885 17.5342 6.89003C17.9637 6.73162 18.3543 6.5336 18.6276 6.29597C18.159 5.14746 17.6513 4.23657 17.1437 3.36528C16.636 2.49399 16.0502 1.74152 15.4254 1.10786V1.06825H14.8006ZM10.583 1.42469V1.38508C10.3096 1.50389 10.0363 1.70191 9.72385 1.82073C9.45049 1.93954 9.09902 2.09795 8.82566 2.25637C8.27894 2.5336 7.73222 2.85043 7.18549 3.20687C6.67782 3.5633 6.17015 3.95934 5.74059 4.35538C5.89679 4.5138 6.09205 4.67221 6.24826 4.79102C6.40446 4.90984 6.59972 5.06825 6.79498 5.22667C6.95119 5.30587 7.14644 5.42469 7.3417 5.5831C7.53696 5.70191 7.77127 5.86033 8.00558 6.01875C8.31799 5.30587 8.6304 4.5534 9.02092 3.88013C9.41144 3.16726 9.841 2.49399 10.2706 1.89993C10.3096 1.82073 10.3487 1.74152 10.4268 1.66231C10.4658 1.62271 10.5049 1.50389 10.583 1.42469ZM22.5328 4.35538V4.31578C21.5565 3.5633 20.6973 2.92964 19.8382 2.5336C18.9791 2.13756 18.1199 1.74152 17.3389 1.42469C17.9637 2.05835 18.5105 2.85043 18.8619 3.6029C19.2524 4.39498 19.643 5.22667 19.9554 6.01875C20.1116 5.93954 20.3068 5.86033 20.5411 5.70191C20.7364 5.5831 21.0098 5.46429 21.2441 5.34548C21.4784 5.18706 21.6736 5.02865 21.9079 4.87023C22.1423 4.67221 22.3766 4.5138 22.5328 4.35538ZM21.8689 13.1871H26.3598C26.3598 11.7217 26.0474 10.3356 25.4616 8.90983C24.9149 7.5237 24.1339 6.37518 23.1576 5.38508V5.34548C22.9623 5.66231 22.689 5.93954 22.4156 6.13756C22.1032 6.33558 21.8298 6.49399 21.5174 6.65241C21.3222 6.77122 21.1269 6.92964 20.9317 7.00885C20.7364 7.12766 20.463 7.20686 20.2678 7.32568C20.424 7.64251 20.5802 7.99894 20.7364 8.31578C20.8536 8.67221 21.0488 9.06825 21.1269 9.42469C21.3612 10.0583 21.5174 10.7316 21.6736 11.4049C21.7908 11.9989 21.8689 12.6326 21.8689 13.1871ZM7.73222 7.32568V7.28607C7.4198 7.12766 7.06834 7.00885 6.79498 6.85043C6.52162 6.65241 6.24826 6.45439 6.01395 6.29597C5.77964 6.17716 5.54533 6.01875 5.35007 5.86033C5.15481 5.70191 4.99861 5.5435 4.8424 5.38508C3.82706 6.37518 3.08508 7.48409 2.61646 8.79102C2.10879 10.098 1.75732 11.5633 1.60112 13.1475H6.40446C6.40446 12.0385 6.56067 10.9692 6.83403 9.89993C7.06834 8.79102 7.4198 7.95934 7.73222 7.32568ZM13.1604 13.1475V8.593C12.848 8.63261 12.4575 8.63261 12.106 8.593C11.7155 8.5534 11.325 8.43459 10.9735 8.31578C10.6611 8.23657 10.2706 8.15736 9.95816 8.03855C9.60669 7.95934 9.25523 7.80092 8.98187 7.64251C8.74756 8.03855 8.5523 8.5138 8.39609 9.02865C8.20084 9.50389 8.08368 10.0187 7.96653 10.494C7.88842 10.9692 7.84937 11.4841 7.81032 11.9197C7.77127 12.3554 7.73222 12.791 7.73222 13.1475H13.1604ZM14.8006 8.67221V13.1475H20.5802C20.5802 12.9098 20.5802 12.6326 20.5411 12.3158C20.463 12.0385 20.424 11.6821 20.3849 11.3653C20.2678 10.89 20.1506 10.3752 19.9944 9.89993C19.8382 9.46429 19.682 9.02865 19.4867 8.67221C19.4086 8.47419 19.3305 8.23657 19.2524 8.07815C19.1353 7.88013 19.0181 7.76132 18.94 7.64251C18.5105 7.95934 17.9247 8.15736 17.2218 8.31578C16.5579 8.47419 15.7768 8.63261 15.0739 8.67221H14.8006ZM6.40446 14.4544H1.60112C1.60112 15.1277 1.71827 15.8801 1.91353 16.791C2.10879 17.7415 2.4993 18.6128 2.92887 19.5633C3.12413 20.0385 3.35844 20.5138 3.59275 20.989C3.86611 21.4247 4.17852 21.8999 4.49093 22.3356C4.72524 22.1772 4.95955 22.0583 5.15481 21.9395C5.38912 21.8207 5.66248 21.6623 5.89679 21.5435C6.17015 21.4247 6.44351 21.3059 6.75593 21.1475C7.02929 21.0286 7.38075 20.8702 7.73222 20.7118C7.4198 19.7217 7.06834 18.7712 6.83403 17.7019C6.56067 16.6722 6.40446 15.6425 6.40446 14.494V14.4544ZM13.1604 19.0881V14.4544H7.73222C7.73222 14.7712 7.77127 15.2465 7.84937 15.7217C7.88842 16.197 8.00558 16.7118 8.08368 17.2267C8.23989 17.7811 8.35704 18.3356 8.51325 18.8108C8.66946 19.2861 8.82566 19.6821 8.98187 20.0385C9.6848 19.7613 10.3877 19.5633 10.8563 19.4445C11.364 19.2861 11.8326 19.1673 12.3013 19.1277H12.7308C12.887 19.0881 13.0432 19.0881 13.1604 19.0881ZM14.8006 14.4544V19.0484C15.0739 19.0881 15.3863 19.1277 15.6987 19.1673C16.0502 19.2069 16.4798 19.2861 16.8312 19.3653L17.417 19.4841C17.6123 19.5633 17.8466 19.6029 18.0418 19.6425C18.2761 19.7217 18.5105 19.7613 18.7448 19.8405C18.94 19.9197 19.1353 19.9593 19.2915 20.0385C19.7992 18.7316 20.1116 17.6623 20.3068 16.7514C20.5021 15.8801 20.5802 15.1277 20.5802 14.494V14.4544H14.8006ZM26.3598 14.494V14.4544H21.8689V14.692C21.8298 15.4445 21.7127 16.3158 21.5565 17.2267C21.4003 18.098 21.0488 19.1277 20.5802 20.395C21.205 20.7118 21.7908 21.0286 22.2594 21.3455C22.728 21.6623 23.1576 22.0187 23.47 22.3356C24.1339 21.6623 24.7197 20.7514 25.2273 19.5633C25.735 18.4148 26.0865 17.2267 26.2817 15.9593C26.3208 15.7217 26.3208 15.4841 26.3598 15.2465V14.494ZM13.1604 26.5336V20.3554C12.1841 20.5138 11.364 20.7118 10.7392 20.8702C10.1144 21.0286 9.64575 21.1871 9.33333 21.3455C9.56764 21.9395 9.80195 22.4544 10.0363 22.9296C10.2706 23.3653 10.5439 23.8405 10.7782 24.2366C10.8563 24.395 11.0126 24.5534 11.1297 24.7514C11.2469 24.9098 11.325 25.1079 11.4421 25.2663C11.5593 25.4643 11.6764 25.7019 11.7936 25.9395C11.9498 26.1376 12.0669 26.3752 12.2232 26.5336H13.1604ZM14.8006 26.5336H15.6987C16.0502 26.2564 16.4017 25.8603 16.675 25.4247C16.9874 24.989 17.3389 24.4742 17.5732 24.0385C17.8466 23.5237 18.1199 23.0484 18.3543 22.5732C18.5886 22.098 18.7838 21.6623 18.94 21.3455C18.5105 21.1871 17.9247 21.0286 17.3389 20.8702C16.7531 20.7118 15.9331 20.5534 14.8006 20.395V26.5336ZM22.5328 23.2861V23.2465C22.4547 23.1277 22.2985 22.9692 22.1813 22.8504C22.0642 22.7316 21.8689 22.5732 21.6736 22.4544C21.5174 22.3356 21.3222 22.2168 21.0879 22.098C20.8536 21.9791 20.5411 21.8207 20.2678 21.6623C20.1116 21.9791 19.8382 22.5336 19.4477 23.2861C19.0962 24.0385 18.4714 24.9494 17.6904 25.9395C18.6667 25.7811 19.5258 25.4247 20.3068 24.9494C21.166 24.5138 21.9079 23.9197 22.5328 23.2861ZM8.00558 22.0187V21.9791C7.73222 22.1376 7.30265 22.3356 6.87308 22.5336C6.40446 22.7316 5.89679 22.9692 5.42817 23.2861C5.70153 23.5237 5.9749 23.7613 6.20921 23.9197C6.44351 24.1178 6.71688 24.2762 6.95119 24.4346C7.38075 24.7118 7.88842 24.989 8.39609 25.2267C8.90377 25.4643 9.52859 25.7019 10.3096 25.9395C10.0363 25.6227 9.841 25.2267 9.64575 24.9098C9.45049 24.593 9.21618 24.2762 9.02092 23.9593C8.82566 23.6425 8.66946 23.2861 8.51325 22.9692C8.31799 22.6524 8.16179 22.3356 8.00558 22.0187Z" fill="white"/>
</g>
<defs>
<clipPath id="clip0">
<rect width="28" height="28" fill="white"/>
</clipPath>
</defs>
</svg>
